<?xml version="1.0" encoding="iso-8859-1"?>
<!-- Generator: Adobe Illustrator 16.0.0, SVG Export Plug-In . SVG Version: 6.00 Build 0)  -->
<!DOCTYPE svg PUBLIC "-//W3C//DTD SVG 1.1//EN" "http://www.w3.org/Graphics/SVG/1.1/DTD/svg11.dtd">
<svg version="1.1" id="Layer_1" xmlns="http://www.w3.org/2000/svg" xmlns:xlink="http://www.w3.org/1999/xlink" x="0px" y="0px"
	 width="512px" height="512px" viewBox="0 0 512 512" style="enable-background:new 0 0 512 512;" xml:space="preserve">
<g>
	<path d="M405.181,113.88c-1.689-1.687-4.426-1.687-6.111,0.002l-28.525,28.526c-0.811,0.81-1.266,1.907-1.266,3.055
		c0,1.146,0.455,2.244,1.266,3.054c28.758,28.758,44.596,66.93,44.596,107.483c-0.002,40.555-15.838,78.727-44.596,107.481
		c-0.811,0.811-1.266,1.91-1.266,3.057c0,1.145,0.455,2.244,1.266,3.055l28.525,28.526c0.809,0.812,1.908,1.267,3.055,1.267
		c1.146-0.001,2.246-0.455,3.057-1.267c38.021-38.021,58.959-88.493,58.959-142.12C464.14,202.373,443.202,151.901,405.181,113.88z"
		/>
	<path d="M332.792,175.053c-1.032,0-2.021,0.409-2.752,1.141l-25.685,25.685c-0.729,0.729-1.14,1.719-1.14,2.751
		s0.41,2.022,1.14,2.751c13.009,13.01,20.175,30.275,20.175,48.62s-7.166,35.611-20.175,48.62c-0.729,0.729-1.14,1.72-1.14,2.752
		c0,1.03,0.41,2.02,1.14,2.75l25.685,25.685c1.52,1.52,3.983,1.52,5.504,0c21.35-21.35,33.107-49.691,33.107-79.807
		c0-30.113-11.758-58.456-33.107-79.807C334.814,175.463,333.824,175.054,332.792,175.053z"/>
	<path d="M256.757,109.458c-2.777-1.427-6.123-1.18-8.662,0.641l-125.877,90.238H56.192c-4.602,0-8.332,3.73-8.332,8.333v94.66
		c0,4.603,3.73,8.333,8.332,8.333h66.025l125.877,90.238c1.443,1.034,3.146,1.561,4.855,1.561c1.301,0,2.607-0.304,3.807-0.921
		c2.779-1.427,4.527-4.288,4.527-7.412V116.871C261.284,113.747,259.536,110.886,256.757,109.458z"/>
</g>
</svg>
